<mxfile host="app.diagrams.net" agent="Mozilla/5.0 (Windows NT 10.0; Win64; x64) AppleWebKit/537.36 (KHTML, like Gecko) Chrome/137.0.0.0 Safari/537.36 Edg/137.0.0.0" version="27.1.4">
  <diagram name="第 1 页" id="Bvf3MywGbPhwy1gK-Kdx">
    <mxGraphModel dx="864" dy="576" grid="1" gridSize="10" guides="1" tooltips="1" connect="1" arrows="1" fold="1" page="1" pageScale="1" pageWidth="827" pageHeight="1169" math="0" shadow="0">
      <root>
        <mxCell id="0" />
        <mxCell id="1" parent="0" />
        <mxCell id="RLyGDdODB2vQ0dkDB72x-1" value="系统 (Top-level)" style="whiteSpace=wrap;strokeWidth=2;fillColor=#f8cecc;strokeColor=#b85450;" vertex="1" parent="1">
          <mxGeometry x="902" y="20" width="174" height="54" as="geometry" />
        </mxCell>
        <mxCell id="RLyGDdODB2vQ0dkDB72x-2" value="蓝牙控制模块 (blueteeth)" style="whiteSpace=wrap;strokeWidth=2;fillColor=#f8cecc;strokeColor=#b85450;" vertex="1" parent="1">
          <mxGeometry x="178" y="124" width="243" height="54" as="geometry" />
        </mxCell>
        <mxCell id="RLyGDdODB2vQ0dkDB72x-3" value="小车运动模块 (motor)" style="whiteSpace=wrap;strokeWidth=2;fillColor=#e1d5e7;strokeColor=#9673a6;" vertex="1" parent="1">
          <mxGeometry x="615" y="124" width="216" height="54" as="geometry" />
        </mxCell>
        <mxCell id="RLyGDdODB2vQ0dkDB72x-4" value="机械臂控制模块 (arm)" style="whiteSpace=wrap;strokeWidth=2;fillColor=#60a917;strokeColor=#2D7600;fontColor=#ffffff;" vertex="1" parent="1">
          <mxGeometry x="885" y="124" width="216" height="54" as="geometry" />
        </mxCell>
        <mxCell id="RLyGDdODB2vQ0dkDB72x-5" value="超声波测距模块 (sonic)" style="whiteSpace=wrap;strokeWidth=2;fillColor=#6a00ff;strokeColor=#3700CC;fontColor=#ffffff;" vertex="1" parent="1">
          <mxGeometry x="1155" y="124" width="225" height="54" as="geometry" />
        </mxCell>
        <mxCell id="RLyGDdODB2vQ0dkDB72x-6" value="数码管显示模块 (SEG)" style="whiteSpace=wrap;strokeWidth=2;fillColor=#f0a30a;strokeColor=#BD7000;fontColor=#000000;" vertex="1" parent="1">
          <mxGeometry x="1658" y="124" width="216" height="54" as="geometry" />
        </mxCell>
        <mxCell id="RLyGDdODB2vQ0dkDB72x-7" value="解析蓝牙指令&#xa;(wheel_cmd, arm_cmd)" style="whiteSpace=wrap;strokeWidth=2;fillColor=#f8cecc;strokeColor=#b85450;" vertex="1" parent="1">
          <mxGeometry x="184" y="228" width="230" height="78" as="geometry" />
        </mxCell>
        <mxCell id="RLyGDdODB2vQ0dkDB72x-8" value="控制小车运动 (move)" style="whiteSpace=wrap;strokeWidth=2;fillColor=#e1d5e7;strokeColor=#9673a6;" vertex="1" parent="1">
          <mxGeometry x="617" y="240" width="211" height="54" as="geometry" />
        </mxCell>
        <mxCell id="RLyGDdODB2vQ0dkDB72x-9" value="控制机械臂动作 (arm)" style="whiteSpace=wrap;strokeWidth=2;fillColor=#60a917;strokeColor=#2D7600;fontColor=#ffffff;" vertex="1" parent="1">
          <mxGeometry x="885" y="240" width="216" height="54" as="geometry" />
        </mxCell>
        <mxCell id="RLyGDdODB2vQ0dkDB72x-10" value="实时测量距离 (distance)" style="whiteSpace=wrap;strokeWidth=2;fillColor=#6a00ff;strokeColor=#3700CC;fontColor=#ffffff;" vertex="1" parent="1">
          <mxGeometry x="1151" y="240" width="233" height="54" as="geometry" />
        </mxCell>
        <mxCell id="RLyGDdODB2vQ0dkDB72x-11" value="显示数据 (display)" style="whiteSpace=wrap;strokeWidth=2;fillColor=#f0a30a;strokeColor=#BD7000;fontColor=#000000;" vertex="1" parent="1">
          <mxGeometry x="1434" y="240" width="190" height="54" as="geometry" />
        </mxCell>
        <mxCell id="RLyGDdODB2vQ0dkDB72x-12" value="停止或继续运动" style="whiteSpace=wrap;strokeWidth=2;fillColor=#e1d5e7;strokeColor=#9673a6;" vertex="1" parent="1">
          <mxGeometry x="637" y="356" width="172" height="54" as="geometry" />
        </mxCell>
        <mxCell id="RLyGDdODB2vQ0dkDB72x-13" value="判断障碍物距离" style="whiteSpace=wrap;strokeWidth=2;fillColor=#6a00ff;strokeColor=#3700CC;fontColor=#ffffff;" vertex="1" parent="1">
          <mxGeometry x="1182" y="356" width="172" height="54" as="geometry" />
        </mxCell>
        <mxCell id="RLyGDdODB2vQ0dkDB72x-14" value="显示实时测得的距离" style="whiteSpace=wrap;strokeWidth=2;fillColor=#f0a30a;strokeColor=#BD7000;fontColor=#000000;" vertex="1" parent="1">
          <mxGeometry x="1427" y="356" width="204" height="54" as="geometry" />
        </mxCell>
        <mxCell id="RLyGDdODB2vQ0dkDB72x-15" value="传递运动指令 (wheel_cmd)" style="whiteSpace=wrap;strokeWidth=2;fillColor=#f8cecc;strokeColor=#b85450;" vertex="1" parent="1">
          <mxGeometry x="20" y="356" width="254" height="54" as="geometry" />
        </mxCell>
        <mxCell id="RLyGDdODB2vQ0dkDB72x-16" value="传递机械臂指令 (arm_cmd)" style="whiteSpace=wrap;strokeWidth=2;fillColor=#f8cecc;strokeColor=#b85450;" vertex="1" parent="1">
          <mxGeometry x="324" y="356" width="255" height="54" as="geometry" />
        </mxCell>
        <mxCell id="RLyGDdODB2vQ0dkDB72x-17" value="控制小车停止或继续" style="whiteSpace=wrap;strokeWidth=2;fillColor=#6a00ff;strokeColor=#3700CC;fontColor=#ffffff;" vertex="1" parent="1">
          <mxGeometry x="1166" y="460" width="204" height="54" as="geometry" />
        </mxCell>
        <mxCell id="RLyGDdODB2vQ0dkDB72x-18" value="实时显示的距离值" style="whiteSpace=wrap;strokeWidth=2;fillColor=#f0a30a;strokeColor=#BD7000;fontColor=#000000;" vertex="1" parent="1">
          <mxGeometry x="1435" y="460" width="188" height="54" as="geometry" />
        </mxCell>
        <mxCell id="RLyGDdODB2vQ0dkDB72x-19" value="前进" style="whiteSpace=wrap;strokeWidth=2;fillColor=#e1d5e7;strokeColor=#9673a6;" vertex="1" parent="1">
          <mxGeometry x="393" y="460" width="92" height="54" as="geometry" />
        </mxCell>
        <mxCell id="RLyGDdODB2vQ0dkDB72x-20" value="后退" style="whiteSpace=wrap;strokeWidth=2;fillColor=#e1d5e7;strokeColor=#9673a6;" vertex="1" parent="1">
          <mxGeometry x="535" y="460" width="92" height="54" as="geometry" />
        </mxCell>
        <mxCell id="RLyGDdODB2vQ0dkDB72x-21" value="左转" style="whiteSpace=wrap;strokeWidth=2;fillColor=#e1d5e7;strokeColor=#9673a6;" vertex="1" parent="1">
          <mxGeometry x="677" y="460" width="92" height="54" as="geometry" />
        </mxCell>
        <mxCell id="RLyGDdODB2vQ0dkDB72x-22" value="右转" style="whiteSpace=wrap;strokeWidth=2;fillColor=#e1d5e7;strokeColor=#9673a6;" vertex="1" parent="1">
          <mxGeometry x="848" y="460" width="92" height="54" as="geometry" />
        </mxCell>
        <mxCell id="RLyGDdODB2vQ0dkDB72x-23" value="停止" style="whiteSpace=wrap;strokeWidth=2;fillColor=#e1d5e7;strokeColor=#9673a6;" vertex="1" parent="1">
          <mxGeometry x="990" y="460" width="92" height="54" as="geometry" />
        </mxCell>
        <mxCell id="RLyGDdODB2vQ0dkDB72x-24" value="更新数码管显示内容" style="whiteSpace=wrap;strokeWidth=2;fillColor=#f0a30a;strokeColor=#BD7000;fontColor=#000000;" vertex="1" parent="1">
          <mxGeometry x="1674" y="240" width="204" height="54" as="geometry" />
        </mxCell>
        <mxCell id="RLyGDdODB2vQ0dkDB72x-25" value="" style="curved=1;startArrow=none;endArrow=block;exitX=0;exitY=0.62;entryX=0.5;entryY=0;rounded=0;fillColor=#f8cecc;strokeColor=#b85450;" edge="1" parent="1" source="RLyGDdODB2vQ0dkDB72x-1" target="RLyGDdODB2vQ0dkDB72x-2">
          <mxGeometry relative="1" as="geometry">
            <Array as="points">
              <mxPoint x="299" y="99" />
            </Array>
          </mxGeometry>
        </mxCell>
        <mxCell id="RLyGDdODB2vQ0dkDB72x-26" value="" style="curved=1;startArrow=none;endArrow=block;exitX=0;exitY=0.81;entryX=0.5;entryY=0;rounded=0;fillColor=#f8cecc;strokeColor=#b85450;" edge="1" parent="1" source="RLyGDdODB2vQ0dkDB72x-1" target="RLyGDdODB2vQ0dkDB72x-3">
          <mxGeometry relative="1" as="geometry">
            <Array as="points">
              <mxPoint x="723" y="99" />
            </Array>
          </mxGeometry>
        </mxCell>
        <mxCell id="RLyGDdODB2vQ0dkDB72x-27" value="" style="curved=1;startArrow=none;endArrow=block;exitX=0.51;exitY=1;entryX=0.5;entryY=0;rounded=0;fillColor=#f8cecc;strokeColor=#b85450;" edge="1" parent="1" source="RLyGDdODB2vQ0dkDB72x-1" target="RLyGDdODB2vQ0dkDB72x-4">
          <mxGeometry relative="1" as="geometry">
            <Array as="points">
              <mxPoint x="993" y="99" />
            </Array>
          </mxGeometry>
        </mxCell>
        <mxCell id="RLyGDdODB2vQ0dkDB72x-28" value="" style="curved=1;startArrow=none;endArrow=block;exitX=1;exitY=0.8;entryX=0.5;entryY=0;rounded=0;fillColor=#f8cecc;strokeColor=#b85450;" edge="1" parent="1" source="RLyGDdODB2vQ0dkDB72x-1" target="RLyGDdODB2vQ0dkDB72x-5">
          <mxGeometry relative="1" as="geometry">
            <Array as="points">
              <mxPoint x="1268" y="99" />
            </Array>
          </mxGeometry>
        </mxCell>
        <mxCell id="RLyGDdODB2vQ0dkDB72x-29" value="" style="curved=1;startArrow=none;endArrow=block;exitX=1;exitY=0.61;entryX=0.5;entryY=0;rounded=0;fillColor=#f8cecc;strokeColor=#b85450;" edge="1" parent="1" source="RLyGDdODB2vQ0dkDB72x-1" target="RLyGDdODB2vQ0dkDB72x-6">
          <mxGeometry relative="1" as="geometry">
            <Array as="points">
              <mxPoint x="1766" y="99" />
            </Array>
          </mxGeometry>
        </mxCell>
        <mxCell id="RLyGDdODB2vQ0dkDB72x-30" value="" style="curved=1;startArrow=none;endArrow=block;exitX=0.5;exitY=1;entryX=0.5;entryY=0;rounded=0;fillColor=#f8cecc;strokeColor=#b85450;" edge="1" parent="1" source="RLyGDdODB2vQ0dkDB72x-2" target="RLyGDdODB2vQ0dkDB72x-7">
          <mxGeometry relative="1" as="geometry">
            <Array as="points" />
          </mxGeometry>
        </mxCell>
        <mxCell id="RLyGDdODB2vQ0dkDB72x-31" value="" style="curved=1;startArrow=none;endArrow=block;exitX=0.5;exitY=1;entryX=0.5;entryY=0;rounded=0;fillColor=#f8cecc;strokeColor=#b85450;" edge="1" parent="1" source="RLyGDdODB2vQ0dkDB72x-3" target="RLyGDdODB2vQ0dkDB72x-8">
          <mxGeometry relative="1" as="geometry">
            <Array as="points" />
          </mxGeometry>
        </mxCell>
        <mxCell id="RLyGDdODB2vQ0dkDB72x-32" value="" style="curved=1;startArrow=none;endArrow=block;exitX=0.5;exitY=1;entryX=0.5;entryY=0;rounded=0;fillColor=#f8cecc;strokeColor=#b85450;" edge="1" parent="1" source="RLyGDdODB2vQ0dkDB72x-4" target="RLyGDdODB2vQ0dkDB72x-9">
          <mxGeometry relative="1" as="geometry">
            <Array as="points" />
          </mxGeometry>
        </mxCell>
        <mxCell id="RLyGDdODB2vQ0dkDB72x-33" value="" style="curved=1;startArrow=none;endArrow=block;exitX=0.5;exitY=1;entryX=0.5;entryY=0;rounded=0;fillColor=#f8cecc;strokeColor=#b85450;" edge="1" parent="1" source="RLyGDdODB2vQ0dkDB72x-5" target="RLyGDdODB2vQ0dkDB72x-10">
          <mxGeometry relative="1" as="geometry">
            <Array as="points" />
          </mxGeometry>
        </mxCell>
        <mxCell id="RLyGDdODB2vQ0dkDB72x-34" value="" style="curved=1;startArrow=none;endArrow=block;exitX=0;exitY=0.94;entryX=0.5;entryY=0;rounded=0;fillColor=#f8cecc;strokeColor=#b85450;" edge="1" parent="1" source="RLyGDdODB2vQ0dkDB72x-6" target="RLyGDdODB2vQ0dkDB72x-11">
          <mxGeometry relative="1" as="geometry">
            <Array as="points">
              <mxPoint x="1529" y="203" />
            </Array>
          </mxGeometry>
        </mxCell>
        <mxCell id="RLyGDdODB2vQ0dkDB72x-35" value="" style="curved=1;startArrow=none;endArrow=block;exitX=0.5;exitY=1;entryX=0.5;entryY=0;rounded=0;fillColor=#f8cecc;strokeColor=#b85450;" edge="1" parent="1" source="RLyGDdODB2vQ0dkDB72x-8" target="RLyGDdODB2vQ0dkDB72x-12">
          <mxGeometry relative="1" as="geometry">
            <Array as="points" />
          </mxGeometry>
        </mxCell>
        <mxCell id="RLyGDdODB2vQ0dkDB72x-36" value="" style="curved=1;startArrow=none;endArrow=block;exitX=0.5;exitY=1;entryX=0.5;entryY=0;rounded=0;fillColor=#f8cecc;strokeColor=#b85450;" edge="1" parent="1" source="RLyGDdODB2vQ0dkDB72x-10" target="RLyGDdODB2vQ0dkDB72x-13">
          <mxGeometry relative="1" as="geometry">
            <Array as="points" />
          </mxGeometry>
        </mxCell>
        <mxCell id="RLyGDdODB2vQ0dkDB72x-37" value="" style="curved=1;startArrow=none;endArrow=block;exitX=0.5;exitY=1;entryX=0.5;entryY=0;rounded=0;fillColor=#f8cecc;strokeColor=#b85450;" edge="1" parent="1" source="RLyGDdODB2vQ0dkDB72x-11" target="RLyGDdODB2vQ0dkDB72x-14">
          <mxGeometry relative="1" as="geometry">
            <Array as="points" />
          </mxGeometry>
        </mxCell>
        <mxCell id="RLyGDdODB2vQ0dkDB72x-38" value="" style="curved=1;startArrow=none;endArrow=block;exitX=0.1;exitY=1;entryX=0.5;entryY=0;rounded=0;fillColor=#f8cecc;strokeColor=#b85450;" edge="1" parent="1" source="RLyGDdODB2vQ0dkDB72x-7" target="RLyGDdODB2vQ0dkDB72x-15">
          <mxGeometry relative="1" as="geometry">
            <Array as="points">
              <mxPoint x="147" y="331" />
            </Array>
          </mxGeometry>
        </mxCell>
        <mxCell id="RLyGDdODB2vQ0dkDB72x-39" value="" style="curved=1;startArrow=none;endArrow=block;exitX=0.9;exitY=1;entryX=0.5;entryY=0;rounded=0;fillColor=#f8cecc;strokeColor=#b85450;" edge="1" parent="1" source="RLyGDdODB2vQ0dkDB72x-7" target="RLyGDdODB2vQ0dkDB72x-16">
          <mxGeometry relative="1" as="geometry">
            <Array as="points">
              <mxPoint x="451" y="331" />
            </Array>
          </mxGeometry>
        </mxCell>
        <mxCell id="RLyGDdODB2vQ0dkDB72x-40" value="" style="curved=1;startArrow=none;endArrow=block;exitX=0.5;exitY=1;entryX=0.5;entryY=0;rounded=0;fillColor=#f8cecc;strokeColor=#b85450;" edge="1" parent="1" source="RLyGDdODB2vQ0dkDB72x-13" target="RLyGDdODB2vQ0dkDB72x-17">
          <mxGeometry relative="1" as="geometry">
            <Array as="points" />
          </mxGeometry>
        </mxCell>
        <mxCell id="RLyGDdODB2vQ0dkDB72x-41" value="" style="curved=1;startArrow=none;endArrow=block;exitX=0.5;exitY=1;entryX=0.5;entryY=0;rounded=0;fillColor=#f8cecc;strokeColor=#b85450;" edge="1" parent="1" source="RLyGDdODB2vQ0dkDB72x-14" target="RLyGDdODB2vQ0dkDB72x-18">
          <mxGeometry relative="1" as="geometry">
            <Array as="points" />
          </mxGeometry>
        </mxCell>
        <mxCell id="RLyGDdODB2vQ0dkDB72x-42" value="" style="curved=1;startArrow=none;endArrow=block;exitX=0;exitY=0.79;entryX=0.5;entryY=0;rounded=0;fillColor=#f8cecc;strokeColor=#b85450;" edge="1" parent="1" source="RLyGDdODB2vQ0dkDB72x-12" target="RLyGDdODB2vQ0dkDB72x-19">
          <mxGeometry relative="1" as="geometry">
            <Array as="points">
              <mxPoint x="439" y="435" />
            </Array>
          </mxGeometry>
        </mxCell>
        <mxCell id="RLyGDdODB2vQ0dkDB72x-43" value="" style="curved=1;startArrow=none;endArrow=block;exitX=0.07;exitY=1;entryX=0.5;entryY=0;rounded=0;fillColor=#f8cecc;strokeColor=#b85450;" edge="1" parent="1" source="RLyGDdODB2vQ0dkDB72x-12" target="RLyGDdODB2vQ0dkDB72x-20">
          <mxGeometry relative="1" as="geometry">
            <Array as="points">
              <mxPoint x="581" y="435" />
            </Array>
          </mxGeometry>
        </mxCell>
        <mxCell id="RLyGDdODB2vQ0dkDB72x-44" value="" style="curved=1;startArrow=none;endArrow=block;exitX=0.5;exitY=1;entryX=0.5;entryY=0;rounded=0;fillColor=#f8cecc;strokeColor=#b85450;" edge="1" parent="1" source="RLyGDdODB2vQ0dkDB72x-12" target="RLyGDdODB2vQ0dkDB72x-21">
          <mxGeometry relative="1" as="geometry">
            <Array as="points" />
          </mxGeometry>
        </mxCell>
        <mxCell id="RLyGDdODB2vQ0dkDB72x-45" value="" style="curved=1;startArrow=none;endArrow=block;exitX=1;exitY=0.98;entryX=0.5;entryY=0;rounded=0;fillColor=#f8cecc;strokeColor=#b85450;" edge="1" parent="1" source="RLyGDdODB2vQ0dkDB72x-12" target="RLyGDdODB2vQ0dkDB72x-22">
          <mxGeometry relative="1" as="geometry">
            <Array as="points">
              <mxPoint x="894" y="435" />
            </Array>
          </mxGeometry>
        </mxCell>
        <mxCell id="RLyGDdODB2vQ0dkDB72x-46" value="" style="curved=1;startArrow=none;endArrow=block;exitX=1;exitY=0.76;entryX=0.5;entryY=0;rounded=0;fillColor=#f8cecc;strokeColor=#b85450;" edge="1" parent="1" source="RLyGDdODB2vQ0dkDB72x-12" target="RLyGDdODB2vQ0dkDB72x-23">
          <mxGeometry relative="1" as="geometry">
            <Array as="points">
              <mxPoint x="1036" y="435" />
            </Array>
          </mxGeometry>
        </mxCell>
        <mxCell id="RLyGDdODB2vQ0dkDB72x-47" value="" style="curved=1;startArrow=none;endArrow=block;exitX=0.52;exitY=1;entryX=0.5;entryY=0;rounded=0;fillColor=#f8cecc;strokeColor=#b85450;" edge="1" parent="1" source="RLyGDdODB2vQ0dkDB72x-6" target="RLyGDdODB2vQ0dkDB72x-24">
          <mxGeometry relative="1" as="geometry">
            <Array as="points">
              <mxPoint x="1776" y="203" />
            </Array>
          </mxGeometry>
        </mxCell>
      </root>
    </mxGraphModel>
  </diagram>
</mxfile>
